<?xml version="1.0" encoding="UTF-8"?>
<svg version="1.1" viewBox="0 0 2048 2048" width="1280" height="1280" xmlns="http://www.w3.org/2000/svg">
<path transform="translate(0)" d="m0 0h2048v2048h-2048z"/>
<path transform="translate(941,463)" d="m0 0h7l7 4 5 8 1 5v80l-3 9-4 6-7 3-8-1-6-4-4-9-1-15v-11l-58-1v72h310v-72h-32v-32l1-1h34l9 2 8 7 5 10 1 4v324l-11-3-4-1h-9l-2-1v-203h-310v323h74l24 1 12 15 11 14 1 4h-126l-9-3-6-5-6-12-1-4v-450l4-10 7-8 8-4h65v-20l1-9 5-8z" fill="#FEFEFE"/>
<path transform="translate(1062,779)" d="m0 0 11 1 8 7 4 10 1 102 6-12 6-5 9-1 8 2 7 8 3 8v3h2l1-8 6-9 5-3 9-1 7 2 8 9 2 9h2l2-9 4-6 5-4 4-1h8l7 3 6 7 3 9v158l-3 9-7 8-4 2-9 1h-86l-5-3-7-7-11-14-13-16-7-9-11-14-9-11-10-13-11-14-12-15-11-14-10-13-5-10-1-4v-7l3-10 6-8 7-4h9l6 3 10 11 13 17 11 13 5 7 1-1v-144l4-10 7-7z" fill="#FEFEFE"/>
<path transform="translate(1547,1172)" d="m0 0h37l10 3 8 6 5 5 6 9 5 12 1 4v23l-4 13-6 10-8 11 1 6 12 21 1 7-5 8-3 2-5-1-5-5-12-19-7-10-3-2h-13l-3 1-1 2-1 25-3 6-5 3-7-2-3-4-1-5v-117l3-7 4-4z" fill="#FEFEFE"/>
<path transform="translate(916,1171)" d="m0 0h6l7 8 18 34 16 30 3-1 9-16 12-22 8-16 8-13 5-4 7 1 5 5 3 6v120l-5 8-6 1-6-3-2-5v-85l-4 4-18 34-9 16-5 5h-7l-5-5-8-14-13-24-8-14v-2h-2v84l-3 6-5 3-7-2-3-4-1-5v-117l2-7 5-5z" fill="#FEFEFE"/>
<path transform="translate(1107,1171)" d="m0 0h8l5 4 6 14 24 72 12 38-1 7-3 5-3 2h-5l-5-5-8-19-2-3h-48l-6 12-4 10-4 5-7-1-5-5-1-2 1-10 13-40 12-36 13-38 5-8z" fill="#FEFEFE"/>
<path transform="translate(583,1171)" d="m0 0h8l5 5 5 11 17 52 14 41 5 15 1 8-3 6-5 4-6-1-4-5-8-19-1-2h-50l-3 9-5 12-5 6h-5l-6-5-1-2v-9l14-43 12-36 13-38 4-6z" fill="#FEFEFE"/>
<path transform="translate(1101,463)" d="m0 0h8l6 4 4 5 2 5 1 22v45l-1 20-4 8-6 5-8 1-7-3-4-5-2-5-1-6v-21l-101-1v-33h101v-27l4-8 6-5z" fill="#FEFEFE"/>
<path transform="translate(858,1170)" d="m0 0 6 2 4 5 1 2-1 9-6 9-13 16-13 17-6 9v5l9 12 11 14 14 18 5 9v7l-7 8-6-1-8-8-11-14-14-18-8-9-4 1-6 7-3 8-1 25-3 6-5 3-7-2-3-4-1-3v-124l4-7 2-1h6l6 5 1 2 1 58 3-1 44-56 7-8z" fill="#FEFEFE"/>
<path transform="translate(1433,1172)" d="m0 0h62l4 4 1 3v9l-4 6-2 2h-48v33h19l19 1 5 6 1 8-4 7-3 2-37 1v29l1 3 46 1 5 3 2 5v9l-3 5-3 2h-58l-5-2-5-9v-117l4-8z" fill="#FEFEFE"/>
<path transform="translate(1224,1171)" d="m0 0h14l12 4 10 9 5 8v9l-5 6-5 1-6-4-8-7-11-2-9 2-5 5-2 5 1 6 3 5 18 10 15 9 9 9 7 14 2 11-1 11-4 10-6 8-9 8-8 3h-19l-10-4-9-7-7-8-3-6 1-9 7-6 6 2 9 9 7 4 4 1h10l8-4 3-5v-10l-3-6-7-6-24-13-12-11-6-11-1-4v-16l4-11 6-8 8-7z" fill="#FEFEFE"/>
<path transform="translate(699,1171)" d="m0 0h15l11 4 9 7 6 8 1 9-3 5-4 4-6-1-8-8-6-3-10-1-9 3-4 5-1 2v7l4 6 10 6 20 11 10 9 6 10 4 11v16l-4 10-6 9-8 7-9 4-10 1-13-2-11-6-10-10-4-7v-8l4-6 6-2 6 4 5 6 9 5 4 1h9l7-3 4-4 2-5-1-8-6-8-15-9-16-9-8-7-6-10-3-12 1-12 4-10 6-9 8-6z" fill="#FEFEFE"/>
<path transform="translate(1312,1172)" d="m0 0h71l4 4 1 3v9l-3 5-2 2-25 1-1 108-4 6-1 1h-9l-4-6-1-4-1-101-1-3-20-1-5-2-4-6-1-6 4-8z" fill="#FEFEFE"/>
<path transform="translate(436,1172)" d="m0 0h71l4 4 1 3v9l-4 6-1 1-24 2-1 3-1 103-3 6-2 2h-9l-4-5-1-9-1-101h-19l-7-2-4-7v-7l3-6z" fill="#FEFEFE"/>
<path transform="translate(1560,1196)" d="m0 0h24l7 3 5 5 4 8 1 13-2 11-5 8-6 5-3 1h-25l-2-1-1-3v-47z"/>
<path transform="translate(1126,779)" d="m0 0h40v51h-40z" fill="#FEFEFE"/>
<path transform="translate(884,779)" d="m0 0h40v50l-1 1h-38l-1-1z" fill="#FEFEFE"/>
<path transform="translate(884,881)" d="m0 0h39l2 3-1 47-2 1h-37l-1-1z" fill="#FEFEFE"/>
<path transform="translate(965,779)" d="m0 0h40v50l-1 1h-39l-1-50z" fill="#FEFEFE"/>
<path transform="translate(1126,677)" d="m0 0h40v50l-5 1h-34l-1-1z" fill="#FEFEFE"/>
<path transform="translate(884,677)" d="m0 0h40v50l-12 1h-19l-9-1z" fill="#FEFEFE"/>
<path transform="translate(1045,677)" d="m0 0h40v50l-34 1-6-1z" fill="#FEFEFE"/>
<path transform="translate(965,677)" d="m0 0h40v50l-33 1-7-1z" fill="#FEFEFE"/>
<path transform="translate(1109,1211)" d="m0 0 4 1 12 36 2 7v6h-32l-1-2 4-15z"/>
<path transform="translate(585,1211)" d="m0 0h3l8 23 7 22v5h-32l-1-2 4-16z"/>
<path transform="translate(1359,1370)" d="m0 0 7 1 5 4 2 5v8l-3 6-4 4-6 1-6-3-3-4-1-3v-10l5-7z" fill="#FEFEFE"/>
<path transform="translate(821,1370)" d="m0 0 7 1 5 5 2 3v10l-4 6-3 3-8 1-5-4-3-7 1-10 4-6z" fill="#FEFEFE"/>
<path transform="translate(988,1370)" d="m0 0 7 1 5 5 2 5-1 10-5 6-4 2-7-1-6-7v-11l4-7z" fill="#FEFEFE"/>
<path transform="translate(894,1370)" d="m0 0 5 1 5 4 3 9-2 8-4 5-5 2-6-1-6-7-1-9 3-7 5-4z" fill="#FEFEFE"/>
<path transform="translate(726,1370)" d="m0 0 6 2 4 4 2 8-2 9-6 5-6 1-5-3-4-6v-11l4-6z" fill="#FEFEFE"/>
<path transform="translate(1279,1370)" d="m0 0h8l6 5 2 5v9l-4 7-7 3-6-1-2-6v-14l2-7z" fill="#FEFEFE"/>
<path transform="translate(1043,1370)" d="m0 0 7 1 3 3 1 3v8l-1 9-1 4h-3l-2-6-4 2-2 4h-2l-1-2v-24z" fill="#FEFEFE"/>
<path transform="translate(847,1370)" d="m0 0h8l5 5 1 2v8l-5 6-7 1-1 5-2 1-2-1v-22z" fill="#FEFEFE"/>
<path transform="translate(1265,1370)" d="m0 0h2l1 2v25l-4 1-6-8-5-9v17h-4l-1-4v-22l5-1 5 8 3 9h2l1-17z" fill="#FEFEFE"/>
<path transform="translate(1109,1370)" d="m0 0 4 1 5 15 2 8v4l-4-1-3-4-7 2-2 3h-4l4-16z" fill="#FEFEFE"/>
<path transform="translate(1228,1370)" d="m0 0h3l6 16 3 12-5-1-2-3h-8l-2 4h-4l2-9 6-18z" fill="#FEFEFE"/>
<path transform="translate(658,1370)" d="m0 0 3 1 8 23v4l-5-1-3-4-8 2v2l-4 1-1-2 6-18z" fill="#FEFEFE"/>
<path transform="translate(747,1371)" d="m0 0 5 1 6 11 3 4 1-16 4 1v17l-1 9-4-1-4-5-5-8v-2h-2l1 16-4-1z" fill="#FEFEFE"/>
<path transform="translate(1390,1369)" d="m0 0 4 4 7 22v3l-5-1-3-4-8 3-4 2-1-2 9-26z" fill="#FCFCFC"/>
<path transform="translate(1328,1370)" d="m0 0 6 1 4 6-1 2-4-3h-6l-3 2-1 3v7l3 5 5 1 3-1 2-6h-5l-1-4 3-1 2 1 3-3 3 4-1 8-5 5-3 2-7-1-5-5-2-6v-7l3-5 4-4z" fill="#FEFEFE"/>
<path transform="translate(1155,1370)" d="m0 0 3 2 2 9 4-4 4-6 3-1-1 7-4 6 1 6 4 5 1 4-5-1-7-9-2 10-4-1v-26z" fill="#FEFEFE"/>
<path transform="translate(1010,1371)" d="m0 0h4l1 19 2 3h6l1-5 1-17 4 2 1 10-2 9-5 6-4 1-5-2-3-4-1-3z" fill="#FEFEFE"/>
<path transform="translate(1358,1375)" d="m0 0h6l4 4 1 9-4 5-6 1-4-4-1-9 3-5z"/>
<path transform="translate(1187,1370)" d="m0 0 6 1 2 5-2 2-4-3h-2l1 7 5 2 3 5-1 7-5 3-6-1-3-4 1-4 4 3h5l-1-4-8-6-1-6 3-6z" fill="#FEFEFE"/>
<path transform="translate(821,1375)" d="m0 0h5l4 4 1 2-1 9-5 4-6-1-3-5v-7z"/>
<path transform="translate(987,1375)" d="m0 0h6l4 5v9l-5 5h-5l-4-5v-9z"/>
<path transform="translate(893,1375)" d="m0 0 6 1 3 5v7l-5 6-6-1-3-3-1-8 3-5z"/>
<path transform="translate(1132,1371)" d="m0 0h9l2 2v5l-4-2h-4l1 5 7 5 1 2v6l-4 4-5 1-5-3-1-6 4 2 1 1h5l-1-4-7-5-2-6 2-6z" fill="#FEFEFE"/>
<path transform="translate(1441,1370)" d="m0 0 6 1 2 3v4l-4-2-3-1-2 2 1 4 5 2 4 5v6l-3 4-4 1-5-2-2-2v-5l4 3 5 1-2-6-7-6-1-4 2-6z" fill="#FEFEFE"/>
<path transform="translate(606,1370)" d="m0 0 7 1 2 6h-3l-6-2 2 6 6 4 2 4-1 6-5 4-5-1-4-4 1-4 4 3h6l-3-5-6-4-2-3 1-8z" fill="#FEFEFE"/>
<path transform="translate(723,1375)" d="m0 0h6l3 3 1 3v8l-5 5-6-1-3-5v-7l3-5z"/>
<path transform="translate(917,1370)" d="m0 0h11l2 2v3h-8l-1 1v7h7l-1 4-7 2-1 9-4-1v-16l1-10z" fill="#FEFEFE"/>
<path transform="translate(1077,1370)" d="m0 0 16 1-1 4-3 3-2 20h-4l-1-21-5-4z" fill="#FEFEFE"/>
<path transform="translate(1412,1370)" d="m0 0 3 2 1 22h9l-1 4-1 1h-9l-3-2-1-5v-20z" fill="#FEFEFE"/>
<path transform="translate(969,1370)" d="m0 0h2l-1 7-4 9-1 11-4 1-2-14-5-10v-3l5 2 3 5 3-1 3-6z" fill="#FEFEFE"/>
<path transform="translate(674,1371)" d="m0 0 4 1 4 6h3l4-7h3l-1 5-5 10-1 12-4-1-2-12-5-12z" fill="#FEFEFE"/>
<path transform="translate(789,1370)" d="m0 0h14l1 2-4 8-1 16-1 2h-3l-1-20-5-4-1-3z" fill="#FEFEFE"/>
<path transform="translate(626,1370)" d="m0 0 16 1-2 4-3 2-2 21-4-1v-21l-5-2z" fill="#FEFEFE"/>
<path transform="translate(1282,1375)" d="m0 0h5l3 3 1 3v7l-3 5-6 1-1-2v-15z"/>
<path transform="translate(850,1374)" d="m0 0 5 2 1 2v7l-3 3h-4l-1-3v-8z"/>
<path transform="translate(1043,1375)" d="m0 0h5l2 6-2 6h-5l-1-1v-10z"/>
<path transform="translate(1109,1379)" d="m0 0 4 4v7l-5-1-1-4z"/>
<path transform="translate(1389,1379)" d="m0 0 3 1 1 2v8l-4-1-1-1z"/>
<path transform="translate(657,1379)" d="m0 0 3 1 1 2v8l-5-2z"/>
<path transform="translate(1229,1380)" d="m0 0h2l1 9h-5l1-8z"/>
</svg>
